<svg width="593" height="60" viewBox="0 0 593 60" fill="none" xmlns="http://www.w3.org/2000/svg">
<path d="M52.635 27.8746V20.8574H45.5976V16.8736H52.635V9.77553H56.639V16.8736H63.6764V20.8574H56.639V27.8746H52.635ZM71.922 32.364C70.3177 32.364 69.1246 32.2764 68.3427 32.1011V27.5915C69.3538 27.8477 70.4997 27.969 71.7805 27.9555C73.0747 27.942 74.2206 27.7937 75.2183 27.5106C76.2159 27.214 77.072 26.7489 77.7865 26.1153C78.5011 25.4681 79.0403 24.6188 79.4043 23.5672C79.7683 22.5157 79.9975 21.2147 80.0919 19.6643H79.8694C79.1819 20.7833 78.373 21.5787 77.4428 22.0506C76.526 22.5224 75.3666 22.7583 73.9645 22.7583C71.6457 22.7583 69.8189 22.0169 68.4842 20.5339C67.1495 19.0374 66.4822 16.9208 66.4822 14.184C66.4822 11.4338 67.2911 9.22953 68.9089 7.57128C70.5536 5.91304 72.7646 5.08392 75.5418 5.08392C78.5078 5.05696 80.8806 6.09504 82.6601 8.19818C84.4397 10.2878 85.3093 13.1392 85.2688 16.7523C85.2688 21.9966 84.1633 25.913 81.9524 28.5015C79.7549 31.0765 76.4114 32.364 71.922 32.364ZM78.5348 11.09C77.7798 10.0923 76.8159 9.59353 75.643 9.59353C74.4701 9.59353 73.5533 9.99798 72.8927 10.8069C72.2456 11.6158 71.922 12.7213 71.922 14.1234C71.922 15.5254 72.2254 16.5972 72.832 17.3387C73.4522 18.0802 74.342 18.451 75.5014 18.451C76.6743 18.451 77.6652 18.0802 78.4741 17.3387C79.283 16.5972 79.6874 15.7344 79.6874 14.7503C79.6874 13.2942 79.3032 12.0741 78.5348 11.09ZM94.3638 11.6764C93.7975 13.092 93.5144 15.4311 93.5144 18.6936C93.5144 21.9562 93.7975 24.2952 94.3638 25.7108C94.93 27.1264 95.8737 27.8342 97.1949 27.8342C98.5161 27.8342 99.4666 27.1264 100.046 25.7108C100.626 24.2818 100.916 21.9427 100.916 18.6936C100.916 15.4446 100.619 13.1055 100.026 11.6764C99.4463 10.2474 98.4959 9.53286 97.1747 9.53286C95.867 9.53286 94.93 10.2474 94.3638 11.6764ZM87.933 18.5723C87.933 13.9751 88.688 10.5642 90.1979 8.33974C91.7214 6.10179 94.0335 4.98281 97.1342 4.98281C100.248 4.98281 102.588 6.14897 104.151 8.48129C105.729 10.8001 106.517 14.2447 106.517 18.815C106.517 23.3852 105.756 26.7893 104.232 29.0273C102.709 31.2518 100.39 32.364 97.2758 32.364C94.1615 32.364 91.8225 31.2113 90.2586 28.906C88.7082 26.6006 87.933 23.156 87.933 18.5723ZM115.653 11.6764C115.087 13.092 114.803 15.4311 114.803 18.6936C114.803 21.9562 115.087 24.2952 115.653 25.7108C116.219 27.1264 117.163 27.8342 118.484 27.8342C119.805 27.8342 120.756 27.1264 121.335 25.7108C121.915 24.2818 122.205 21.9427 122.205 18.6936C122.205 15.4446 121.908 13.1055 121.315 11.6764C120.735 10.2474 119.785 9.53286 118.464 9.53286C117.156 9.53286 116.219 10.2474 115.653 11.6764ZM109.222 18.5723C109.222 13.9751 109.977 10.5642 111.487 8.33974C113.01 6.10179 115.323 4.98281 118.423 4.98281C121.538 4.98281 123.877 6.14897 125.44 8.48129C127.018 10.8001 127.807 14.2447 127.807 18.815C127.807 23.3852 127.045 26.7893 125.521 29.0273C123.998 31.2518 121.679 32.364 118.565 32.364C115.451 32.364 113.112 31.2113 111.548 28.906C109.997 26.6006 109.222 23.156 109.222 18.5723ZM137.609 32H132.068V3.68857H137.609V16.3074L137.326 20.9383H137.407L139.813 17.8443L145.516 11.6562H151.785L143.696 20.4732L152.271 32H145.86L139.995 23.7492L137.609 25.6704V32ZM52.3054 48.2558C54.3428 48.2558 55.3615 47.1613 55.3615 44.9722C55.3615 42.8286 54.4161 41.7568 52.5253 41.7568H51.4029V48.2558H52.3054ZM52.4191 40.0202C54.042 40.0202 55.3033 40.4499 56.2032 41.3094C57.1082 42.1638 57.5607 43.3898 57.5607 44.9874C57.5607 46.5799 57.093 47.8134 56.1577 48.6881C55.2225 49.5627 53.8726 50 52.1082 50H49.2872V40.0202H52.4191ZM63.9439 41.6279C63.1047 41.6279 62.4702 41.911 62.0405 42.4772C61.6158 43.0435 61.4035 43.8827 61.4035 44.9949C61.4035 47.2396 62.2452 48.362 63.9288 48.362C65.6173 48.362 66.4616 47.2396 66.4616 44.9949C66.4616 42.7503 65.6224 41.6279 63.9439 41.6279ZM60.4101 41.1805C61.2392 40.3059 62.4197 39.8686 63.9515 39.8686C65.4834 39.8686 66.6537 40.3109 67.4626 41.1957C68.2766 42.0804 68.6836 43.3493 68.6836 45.0025C68.6836 46.6557 68.2741 47.9247 67.4551 48.8094C66.636 49.6941 65.4606 50.1365 63.9288 50.1365C62.402 50.1365 61.2291 49.6941 60.4101 48.8094C59.591 47.9247 59.1815 46.6507 59.1815 44.9874C59.1815 43.3241 59.591 42.0551 60.4101 41.1805ZM82.8701 40.0202L80.3297 50H77.9181L76.5683 44.7599C76.5228 44.593 76.4394 44.2139 76.318 43.6223C76.1967 43.0308 76.1259 42.6314 76.1057 42.4242C76.0855 42.6719 76.0172 43.0688 75.9009 43.6148L75.6507 44.775L74.3008 50H71.9045L69.3564 40.0202H71.4343L72.7159 45.4651C72.9485 46.5319 73.1102 47.4039 73.2012 48.0814C73.2265 47.8185 73.2847 47.4317 73.3757 46.9211C73.4717 46.4055 73.5678 45.9681 73.6638 45.6092L75.1198 40.0202H77.1143L78.5703 45.6092C78.631 45.8266 78.7093 46.2108 78.8054 46.7619C78.8863 47.1714 78.9596 47.6112 79.0253 48.0814C79.0657 47.7781 79.1365 47.3458 79.2376 46.7846C79.3438 46.2235 79.4373 45.7836 79.5182 45.4651L80.7847 40.0202H82.8701ZM92.9856 40.0202V50H90.2935L85.9558 42.4545H85.8952C85.9811 43.8195 86.0241 44.77 86.0241 45.3059V50H84.1358V40.0202H86.7976L91.1353 47.4975H91.1808C91.1151 46.2487 91.0822 45.3311 91.0822 44.7447V40.0202H92.9856ZM101.661 50H95.503V40.0202H97.6188V48.2558H101.661V50ZM107.435 41.6279C106.596 41.6279 105.961 41.911 105.532 42.4772C105.107 43.0435 104.895 43.8827 104.895 44.9949C104.895 47.2396 105.736 48.362 107.42 48.362C109.109 48.362 109.953 47.2396 109.953 44.9949C109.953 42.7503 109.114 41.6279 107.435 41.6279ZM103.901 41.1805C104.73 40.3059 105.911 39.8686 107.443 39.8686C108.975 39.8686 110.145 40.3109 110.954 41.1957C111.768 42.0804 112.175 43.3493 112.175 45.0025C112.175 46.6557 111.765 47.9247 110.946 48.8094C110.127 49.6941 108.952 50.1365 107.42 50.1365C105.893 50.1365 104.72 49.6941 103.901 48.8094C103.082 47.9247 102.673 46.6507 102.673 44.9874C102.673 43.3241 103.082 42.0551 103.901 41.1805ZM122.347 50H120.065L119.344 47.6264H115.704L114.984 50H112.701L116.22 39.9823H118.806L122.347 50ZM116.235 45.8519H118.836L117.706 42.2042C117.625 41.9312 117.565 41.7063 117.524 41.5293C117.388 42.0753 116.958 43.5162 116.235 45.8519ZM126.632 48.2558C128.669 48.2558 129.688 47.1613 129.688 44.9722C129.688 42.8286 128.742 41.7568 126.851 41.7568H125.729V48.2558H126.632ZM126.745 40.0202C128.368 40.0202 129.63 40.4499 130.529 41.3094C131.434 42.1638 131.887 43.3898 131.887 44.9874C131.887 46.5799 131.419 47.8134 130.484 48.6881C129.549 49.5627 128.199 50 126.434 50H123.613V40.0202H126.745ZM139.84 47.2321C139.84 48.1269 139.516 48.8347 138.869 49.3554C138.222 49.8761 137.342 50.1365 136.23 50.1365C135.118 50.1365 134.155 49.9368 133.341 49.5374V47.5733C134.013 47.8665 134.582 48.0763 135.047 48.2027C135.512 48.3291 135.96 48.3923 136.389 48.3923C136.819 48.3923 137.155 48.3038 137.398 48.1269C137.646 47.9449 137.77 47.6795 137.77 47.3306C137.77 47.1284 137.714 46.954 137.603 46.8074C137.492 46.6557 137.337 46.5142 137.14 46.3827C136.948 46.2462 136.526 46.0263 135.874 45.723C135.227 45.4146 134.754 45.1289 134.456 44.866C133.788 44.2897 133.455 43.5667 133.455 42.6972C133.455 41.8276 133.753 41.14 134.349 40.6345C134.946 40.1289 135.773 39.8761 136.829 39.8761C137.724 39.8761 138.712 40.1112 139.794 40.5814L139.112 42.227C138.581 42.0096 138.139 41.8579 137.785 41.772C137.431 41.686 137.072 41.6431 136.708 41.6431C136.349 41.6431 136.061 41.7341 135.843 41.9161C135.631 42.0981 135.525 42.3433 135.525 42.6517C135.525 43.0056 135.704 43.3038 136.063 43.5465C136.24 43.6678 136.688 43.8979 137.406 44.2366C138.331 44.6815 138.968 45.1289 139.317 45.5789C139.665 46.0288 139.84 46.5799 139.84 47.2321Z" fill="white"/>
<path d="M279.635 27.8746V20.8574H272.598V16.8736H279.635V9.77553H283.639V16.8736H290.676V20.8574H283.639V27.8746H279.635ZM304.281 22.1112V17.6016C304.281 16.6983 304.308 15.5794 304.362 14.2447C304.416 12.91 304.47 12.1079 304.524 11.8382H304.382C303.924 12.8224 303.378 13.7931 302.744 14.7503L297.87 22.1112H304.281ZM312.977 22.1112V26.4793H309.781V32H304.281V26.4793H292.916V22.5763L304.584 5.38726H309.781V22.1112H312.977ZM321.364 11.6764C320.798 13.092 320.514 15.4311 320.514 18.6936C320.514 21.9562 320.798 24.2952 321.364 25.7108C321.93 27.1264 322.874 27.8342 324.195 27.8342C325.516 27.8342 326.467 27.1264 327.046 25.7108C327.626 24.2818 327.916 21.9427 327.916 18.6936C327.916 15.4446 327.619 13.1055 327.026 11.6764C326.446 10.2474 325.496 9.53286 324.175 9.53286C322.867 9.53286 321.93 10.2474 321.364 11.6764ZM314.933 18.5723C314.933 13.9751 315.688 10.5642 317.198 8.33974C318.721 6.10179 321.033 4.98281 324.134 4.98281C327.248 4.98281 329.588 6.14897 331.151 8.48129C332.729 10.8001 333.517 14.2447 333.517 18.815C333.517 23.3852 332.756 26.7893 331.232 29.0273C329.709 31.2518 327.39 32.364 324.276 32.364C321.162 32.364 318.822 31.2113 317.259 28.906C315.708 26.6006 314.933 23.156 314.933 18.5723ZM342.653 11.6764C342.087 13.092 341.803 15.4311 341.803 18.6936C341.803 21.9562 342.087 24.2952 342.653 25.7108C343.219 27.1264 344.163 27.8342 345.484 27.8342C346.805 27.8342 347.756 27.1264 348.335 25.7108C348.915 24.2818 349.205 21.9427 349.205 18.6936C349.205 15.4446 348.908 13.1055 348.315 11.6764C347.735 10.2474 346.785 9.53286 345.464 9.53286C344.156 9.53286 343.219 10.2474 342.653 11.6764ZM336.222 18.5723C336.222 13.9751 336.977 10.5642 338.487 8.33974C340.01 6.10179 342.323 4.98281 345.423 4.98281C348.538 4.98281 350.877 6.14897 352.44 8.48129C354.018 10.8001 354.807 14.2447 354.807 18.815C354.807 23.3852 354.045 26.7893 352.521 29.0273C350.998 31.2518 348.679 32.364 345.565 32.364C342.451 32.364 340.112 31.2113 338.548 28.906C336.997 26.6006 336.222 23.156 336.222 18.5723ZM276.49 41.6431C275.697 41.6431 275.08 41.9414 274.64 42.5379C274.205 43.1395 273.988 43.9737 273.988 45.0404C273.988 47.2649 274.822 48.3771 276.49 48.3771C277.198 48.3771 278.048 48.2027 279.038 47.8539V49.6284C278.224 49.9671 277.309 50.1365 276.293 50.1365C274.842 50.1365 273.733 49.6967 272.964 48.817C272.196 47.9323 271.811 46.6684 271.811 45.0253C271.796 43.4681 272.216 42.2169 273.07 41.2715C273.93 40.321 275.07 39.8559 276.49 39.8761C277.461 39.8761 278.437 40.1112 279.418 40.5814L278.735 42.3028C277.81 41.863 277.062 41.6431 276.49 41.6431ZM283.281 50H281.165V40.0202H283.281V50ZM289.639 41.7796V50H287.523V41.7796H284.816V40.0202H292.346V41.7796H289.639ZM301.286 50H299.003L298.283 47.6264H294.643L293.922 50H291.64L295.158 39.9823H297.744L301.286 50ZM295.174 45.8519H297.775L296.645 42.2042C296.564 41.9312 296.503 41.7063 296.463 41.5293C296.326 42.0753 295.896 43.5162 295.174 45.8519ZM305.415 41.7796V50H303.299V41.7796H300.592V40.0202H308.122V41.7796H305.415ZM311.772 50H309.656V40.0202H311.772V50ZM318.6 41.6279C317.761 41.6279 317.126 41.911 316.697 42.4772C316.272 43.0435 316.06 43.8827 316.06 44.9949C316.06 47.2396 316.901 48.362 318.585 48.362C320.274 48.362 321.118 47.2396 321.118 44.9949C321.118 42.7503 320.279 41.6279 318.6 41.6279ZM315.066 41.1805C315.895 40.3059 317.076 39.8686 318.608 39.8686C320.14 39.8686 321.31 40.3109 322.119 41.1957C322.933 42.0804 323.34 43.3493 323.34 45.0025C323.34 46.6557 322.93 47.9247 322.111 48.8094C321.292 49.6941 320.117 50.1365 318.585 50.1365C317.058 50.1365 315.885 49.6941 315.066 48.8094C314.247 47.9247 313.838 46.6507 313.838 44.9874C313.838 43.3241 314.247 42.0551 315.066 41.1805ZM334.253 40.0202V50H331.561L327.223 42.4545H327.163C327.249 43.8195 327.292 44.77 327.292 45.3059V50H325.403V40.0202H328.065L332.403 47.4975H332.448C332.383 46.2487 332.35 45.3311 332.35 44.7447V40.0202H334.253ZM342.655 47.2321C342.655 48.1269 342.332 48.8347 341.685 49.3554C341.038 49.8761 340.158 50.1365 339.046 50.1365C337.933 50.1365 336.97 49.9368 336.156 49.5374V47.5733C336.829 47.8665 337.397 48.0763 337.863 48.2027C338.328 48.3291 338.775 48.3923 339.205 48.3923C339.635 48.3923 339.971 48.3038 340.213 48.1269C340.461 47.9449 340.585 47.6795 340.585 47.3306C340.585 47.1284 340.529 46.954 340.418 46.8074C340.307 46.6557 340.153 46.5142 339.956 46.3827C339.763 46.2462 339.341 46.0263 338.689 45.723C338.042 45.4146 337.569 45.1289 337.271 44.866C336.604 44.2897 336.27 43.5667 336.27 42.6972C336.27 41.8276 336.568 41.14 337.165 40.6345C337.761 40.1289 338.588 39.8761 339.645 39.8761C340.54 39.8761 341.528 40.1112 342.61 40.5814L341.927 42.227C341.396 42.0096 340.954 41.8579 340.6 41.772C340.246 41.686 339.887 41.6431 339.523 41.6431C339.164 41.6431 338.876 41.7341 338.659 41.9161C338.447 42.0981 338.34 42.3433 338.34 42.6517C338.34 43.0056 338.52 43.3038 338.879 43.5465C339.056 43.6678 339.503 43.8979 340.221 44.2366C341.146 44.6815 341.783 45.1289 342.132 45.5789C342.481 46.0288 342.655 46.5799 342.655 47.2321Z" fill="white"/>
<path d="M474.635 27.8746V20.8574H467.598V16.8736H474.635V9.77553H478.639V16.8736H485.676V20.8574H478.639V27.8746H474.635ZM488.28 10.1598V5.4277H507.39V8.96663L497.319 32H491.414L501.404 10.1598H488.28ZM516.364 11.6764C515.798 13.092 515.514 15.4311 515.514 18.6936C515.514 21.9562 515.798 24.2952 516.364 25.7108C516.93 27.1264 517.874 27.8342 519.195 27.8342C520.516 27.8342 521.467 27.1264 522.046 25.7108C522.626 24.2818 522.916 21.9427 522.916 18.6936C522.916 15.4446 522.619 13.1055 522.026 11.6764C521.446 10.2474 520.496 9.53286 519.175 9.53286C517.867 9.53286 516.93 10.2474 516.364 11.6764ZM509.933 18.5723C509.933 13.9751 510.688 10.5642 512.198 8.33974C513.721 6.10179 516.033 4.98281 519.134 4.98281C522.248 4.98281 524.588 6.14897 526.151 8.48129C527.729 10.8001 528.517 14.2447 528.517 18.815C528.517 23.3852 527.756 26.7893 526.232 29.0273C524.709 31.2518 522.39 32.364 519.276 32.364C516.162 32.364 513.822 31.2113 512.259 28.906C510.708 26.6006 509.933 23.156 509.933 18.5723ZM537.653 11.6764C537.087 13.092 536.803 15.4311 536.803 18.6936C536.803 21.9562 537.087 24.2952 537.653 25.7108C538.219 27.1264 539.163 27.8342 540.484 27.8342C541.805 27.8342 542.756 27.1264 543.335 25.7108C543.915 24.2818 544.205 21.9427 544.205 18.6936C544.205 15.4446 543.908 13.1055 543.315 11.6764C542.735 10.2474 541.785 9.53286 540.464 9.53286C539.156 9.53286 538.219 10.2474 537.653 11.6764ZM531.222 18.5723C531.222 13.9751 531.977 10.5642 533.487 8.33974C535.01 6.10179 537.323 4.98281 540.423 4.98281C543.538 4.98281 545.877 6.14897 547.44 8.48129C549.018 10.8001 549.807 14.2447 549.807 18.815C549.807 23.3852 549.045 26.7893 547.521 29.0273C545.998 31.2518 543.679 32.364 540.565 32.364C537.451 32.364 535.112 31.2113 533.548 28.906C531.997 26.6006 531.222 23.156 531.222 18.5723ZM473.144 47.2321C473.144 48.1269 472.82 48.8347 472.173 49.3554C471.526 49.8761 470.646 50.1365 469.534 50.1365C468.422 50.1365 467.459 49.9368 466.645 49.5374V47.5733C467.317 47.8665 467.886 48.0763 468.351 48.2027C468.816 48.3291 469.263 48.3923 469.693 48.3923C470.123 48.3923 470.459 48.3038 470.702 48.1269C470.949 47.9449 471.073 47.6795 471.073 47.3306C471.073 47.1284 471.018 46.954 470.906 46.8074C470.795 46.6557 470.641 46.5142 470.444 46.3827C470.252 46.2462 469.83 46.0263 469.177 45.723C468.53 45.4146 468.058 45.1289 467.759 44.866C467.092 44.2897 466.758 43.5667 466.758 42.6972C466.758 41.8276 467.057 41.14 467.653 40.6345C468.25 40.1289 469.076 39.8761 470.133 39.8761C471.028 39.8761 472.016 40.1112 473.098 40.5814L472.416 42.227C471.885 42.0096 471.442 41.8579 471.088 41.772C470.735 41.686 470.376 41.6431 470.012 41.6431C469.653 41.6431 469.365 41.7341 469.147 41.9161C468.935 42.0981 468.829 42.3433 468.829 42.6517C468.829 43.0056 469.008 43.3038 469.367 43.5465C469.544 43.6678 469.991 43.8979 470.709 44.2366C471.634 44.6815 472.271 45.1289 472.62 45.5789C472.969 46.0288 473.144 46.5799 473.144 47.2321ZM478.794 41.7796V50H476.678V41.7796H473.971V40.0202H481.501V41.7796H478.794ZM490.441 50H488.158L487.438 47.6264H483.798L483.078 50H480.795L484.314 39.9823H486.9L490.441 50ZM484.329 45.8519H486.93L485.8 42.2042C485.719 41.9312 485.658 41.7063 485.618 41.5293C485.481 42.0753 485.052 43.5162 484.329 45.8519ZM493.823 46.1704V50H491.707V40.0202H494.612C495.961 40.0202 496.962 40.2679 497.615 40.7634C498.272 41.2538 498.6 42.002 498.6 43.0081C498.6 43.5945 498.439 44.1178 498.115 44.5779C497.797 45.0329 497.339 45.3918 496.742 45.6547C498.244 47.8943 499.222 49.3428 499.677 50H497.326L494.945 46.1704H493.823ZM493.823 41.7568V44.4489H494.505C495.173 44.4489 495.666 44.3377 495.984 44.1153C496.303 43.8928 496.462 43.5465 496.462 43.0763C496.462 42.6062 496.3 42.27 495.977 42.0677C495.658 41.8605 495.152 41.7568 494.46 41.7568H493.823ZM506.82 47.2321C506.82 48.1269 506.497 48.8347 505.85 49.3554C505.203 49.8761 504.323 50.1365 503.211 50.1365C502.098 50.1365 501.135 49.9368 500.321 49.5374V47.5733C500.994 47.8665 501.563 48.0763 502.028 48.2027C502.493 48.3291 502.94 48.3923 503.37 48.3923C503.8 48.3923 504.136 48.3038 504.378 48.1269C504.626 47.9449 504.75 47.6795 504.75 47.3306C504.75 47.1284 504.694 46.954 504.583 46.8074C504.472 46.6557 504.318 46.5142 504.121 46.3827C503.929 46.2462 503.506 46.0263 502.854 45.723C502.207 45.4146 501.734 45.1289 501.436 44.866C500.769 44.2897 500.435 43.5667 500.435 42.6972C500.435 41.8276 500.733 41.14 501.33 40.6345C501.927 40.1289 502.753 39.8761 503.81 39.8761C504.705 39.8761 505.693 40.1112 506.775 40.5814L506.092 42.227C505.561 42.0096 505.119 41.8579 504.765 41.772C504.411 41.686 504.052 41.6431 503.688 41.6431C503.329 41.6431 503.041 41.7341 502.824 41.9161C502.612 42.0981 502.505 42.3433 502.505 42.6517C502.505 43.0056 502.685 43.3038 503.044 43.5465C503.221 43.6678 503.668 43.8979 504.386 44.2366C505.311 44.6815 505.948 45.1289 506.297 45.5789C506.646 46.0288 506.82 46.5799 506.82 47.2321Z" fill="white"/>
<path d="M18.9803 10.3886C19.4193 10.7667 19.6187 11.1492 19.7383 11.715C19.756 11.9799 19.7654 12.2352 19.7647 12.4998C19.7652 12.5762 19.7658 12.6526 19.7663 12.7313C19.7679 12.9859 19.7682 13.2404 19.7685 13.495C19.7694 13.6781 19.7703 13.8611 19.7714 14.0442C19.774 14.5402 19.7754 15.0362 19.7766 15.5322C19.7781 16.0509 19.7807 16.5696 19.7831 17.0883C19.7875 18.0701 19.791 19.0519 19.7941 20.0337C19.7978 21.1516 19.8024 22.2696 19.8072 23.3875C19.817 25.6868 19.8255 27.9861 19.833 30.2854C19.948 30.1691 19.948 30.1691 20.0653 30.0505C20.7891 29.319 21.5139 28.5886 22.2397 27.859C22.6128 27.484 22.9855 27.1086 23.3575 26.7324C23.7166 26.3691 24.0767 26.0067 24.4374 25.645C24.5747 25.5071 24.7116 25.3688 24.8481 25.2303C25.0399 25.0357 25.2329 24.8423 25.4262 24.6492C25.482 24.592 25.5377 24.5349 25.5952 24.4761C26.1301 23.9463 26.6889 23.5989 27.4602 23.5998C28.178 23.6231 28.5739 23.8531 29.059 24.3637C29.317 24.7606 29.4311 25.1038 29.438 25.5777C29.4407 25.6613 29.4434 25.745 29.4461 25.8312C29.3096 26.7232 28.6735 27.2794 28.0619 27.8867C27.9631 27.9861 27.8644 28.0857 27.7657 28.1853C27.499 28.4541 27.2311 28.7218 26.9629 28.9891C26.7386 29.2129 26.5149 29.4373 26.2912 29.6617C25.7634 30.1911 25.2346 30.7196 24.7051 31.2475C24.1598 31.7912 23.6161 32.3364 23.0731 32.8824C22.6059 33.3522 22.1378 33.821 21.6689 34.2891C21.3893 34.5682 21.11 34.8477 20.8316 35.128C20.5698 35.3916 20.3069 35.6539 20.0431 35.9154C19.9467 36.0113 19.8508 36.1076 19.7552 36.2043C19.1708 36.7956 18.7274 37.1913 17.8937 37.3377C16.5849 37.3403 15.7491 36.254 14.8845 35.394C14.8044 35.3137 14.7242 35.2335 14.6416 35.1509C14.5106 35.0204 14.5106 35.0204 14.377 34.8873C14.1405 34.6516 13.9044 34.4157 13.6683 34.1797C13.5204 34.0318 13.3724 33.884 13.2244 33.7363C12.7071 33.2198 12.19 32.7032 11.6732 32.1862C11.1927 31.7058 10.7118 31.2258 10.2306 30.7462C9.81581 30.3326 9.40134 29.9186 8.98716 29.5044C8.7405 29.2577 8.4937 29.0111 8.24653 28.765C7.9714 28.4909 7.69703 28.2161 7.42273 27.9413C7.34141 27.8605 7.2601 27.7797 7.17632 27.6965C6.49126 27.0078 6.04644 26.4586 6 25.4533C6.0715 24.8226 6.31017 24.4059 6.76612 23.9729C7.16499 23.6863 7.53381 23.6215 8.01929 23.6117C8.12054 23.6079 8.22179 23.6041 8.32611 23.6002C9.04904 23.7173 9.57396 24.2485 10.071 24.7547C10.1321 24.8157 10.1932 24.8768 10.2561 24.9397C10.4557 25.1395 10.6543 25.3402 10.8528 25.541C10.9919 25.6806 11.131 25.8201 11.2702 25.9596C11.6347 26.3252 11.9983 26.6916 12.3617 27.0582C12.7334 27.4328 13.1059 27.8066 13.4783 28.1804C14.2077 28.9129 14.9362 29.6462 15.6642 30.3801C15.6643 30.2837 15.6645 30.1872 15.6646 30.0878C15.6681 27.74 15.6737 25.3922 15.6816 23.0444C15.6854 21.909 15.6884 20.7736 15.6899 19.6383C15.6911 18.6486 15.6936 17.659 15.6978 16.6693C15.6999 16.1454 15.7014 15.6214 15.7013 15.0975C15.7012 14.6041 15.7029 14.1108 15.706 13.6174C15.7068 13.4365 15.7069 13.2556 15.7064 13.0748C15.7058 12.8273 15.7075 12.5799 15.7098 12.3325C15.709 12.2613 15.7083 12.1902 15.7075 12.1168C15.7172 11.518 15.9124 11.0343 16.3 10.5758C17.1455 9.8891 18.0502 9.804 18.9803 10.3886Z" fill="white"/>
<path d="M3.46112 34.7807C3.87737 35.266 4.04042 35.646 4.04304 36.2888C4.0437 36.3812 4.04437 36.4735 4.04506 36.5687C4.04545 36.668 4.04584 36.7673 4.04625 36.8696C4.04845 37.0808 4.05073 37.292 4.0531 37.5032C4.05642 37.8354 4.0592 38.1677 4.06048 38.4999C4.06195 38.8211 4.06576 39.1421 4.06994 39.4633C4.06976 39.5618 4.06958 39.6603 4.06939 39.7618C4.08145 40.4843 4.20607 41.0286 4.73428 41.5433C5.30098 41.9026 5.76879 41.914 6.42476 41.9114C6.57334 41.912 6.57334 41.912 6.72492 41.9125C7.05732 41.9135 7.38971 41.9131 7.72211 41.9128C7.96022 41.9132 8.19833 41.9137 8.43644 41.9142C9.01637 41.9154 9.5963 41.9156 10.1762 41.9154C10.6476 41.9152 11.119 41.9154 11.5903 41.9158C11.6574 41.9158 11.7245 41.9159 11.7936 41.916C11.9299 41.9161 12.0662 41.9162 12.2025 41.9163C13.4806 41.9173 14.7587 41.9171 16.0368 41.9165C17.206 41.9161 18.3752 41.9171 19.5444 41.9189C20.745 41.9208 21.9457 41.9215 23.1463 41.9212C23.8204 41.921 24.4944 41.9212 25.1684 41.9226C25.8021 41.9238 26.4358 41.9236 27.0696 41.9223C27.3023 41.9221 27.5351 41.9224 27.7678 41.9232C28.0852 41.9242 28.4026 41.9234 28.72 41.9222C28.8586 41.9232 28.8586 41.9232 29 41.9243C29.5022 41.9203 29.8342 41.8696 30.2745 41.6025C30.4152 41.5556 30.4152 41.5556 30.5587 41.5077C30.6682 41.3349 30.6682 41.3349 30.7482 41.1288C30.7745 41.0674 30.8007 41.0061 30.8278 40.9429C31.0433 40.356 31.07 39.8249 31.0643 39.2038C31.0655 38.9985 31.0667 38.7931 31.068 38.5878C31.0684 38.2676 31.068 37.9475 31.0666 37.6273C31.0658 37.3159 31.0678 37.0045 31.0702 36.6931C31.0689 36.5981 31.0677 36.5031 31.0664 36.4053C31.0746 35.6151 31.3251 35.1776 31.8496 34.6031C32.3818 34.268 32.9912 34.1395 33.6143 34.2655C34.1466 34.4379 34.5663 34.7256 34.8579 35.2071C35.0529 35.6272 35.1178 35.9907 35.1218 36.4509C35.1227 36.5352 35.1236 36.6194 35.1246 36.7062C35.1252 36.8415 35.1252 36.8415 35.1258 36.9795C35.1263 37.0741 35.1269 37.1687 35.1274 37.2661C35.1283 37.4666 35.129 37.667 35.1293 37.8675C35.1302 38.1692 35.1332 38.4708 35.1362 38.7725C35.1434 40.1334 35.1487 41.5468 34.4789 42.775C34.4463 42.8373 34.4137 42.8997 34.3801 42.9639C34.0697 43.5326 33.6802 43.9978 33.2116 44.4449C33.135 44.5242 33.135 44.5242 33.0569 44.6052C31.9882 45.6336 30.4395 46.0067 29.0021 45.9969C28.8479 45.9976 28.8479 45.9976 28.6907 45.9983C28.3496 45.9994 28.0086 45.9985 27.6676 45.9976C27.4218 45.998 27.1759 45.9985 26.9301 45.9991C26.3337 46.0004 25.7373 46.0001 25.1409 45.9993C24.6559 45.9987 24.1709 45.9986 23.6859 45.9989C23.6167 45.9989 23.5475 45.999 23.4761 45.999C23.3355 45.9991 23.1948 45.9992 23.0541 45.9993C21.7376 46.0001 20.421 45.9992 19.1044 45.9976C17.9765 45.9964 16.8485 45.9966 15.7205 45.9979C14.4082 45.9994 13.096 46 11.7837 45.9992C11.6436 45.9991 11.5035 45.999 11.3634 45.9989C11.2945 45.9988 11.2256 45.9988 11.1546 45.9988C10.6705 45.9985 10.1865 45.9989 9.70239 45.9996C9.05014 46.0005 8.39791 45.9998 7.74567 45.9982C7.50669 45.9978 7.26771 45.9979 7.02874 45.9986C6.70179 45.9993 6.37489 45.9984 6.04794 45.9969C5.95406 45.9976 5.86017 45.9982 5.76345 45.9989C4.83547 45.9911 3.99543 45.7532 3.17095 45.3332C3.10641 45.3003 3.04187 45.2675 2.97538 45.2337C1.67991 44.5477 0.843219 43.4349 0.334469 42.0762C0.0957006 41.2581 0.00685687 40.4813 0.00914708 39.6317C0.00865043 39.5217 0.00815379 39.4116 0.00764209 39.2983C0.00703852 39.068 0.00715426 38.8376 0.00796737 38.6073C0.00877885 38.2559 0.00603345 37.9047 0.00304035 37.5534C0.00288771 37.3283 0.00294216 37.1032 0.00322541 36.8781C0.00216102 36.774 0.00109664 36.6698 0 36.5625C0.00608104 35.8893 0.0869575 35.3293 0.566341 34.8263C1.42766 34.0739 2.57252 34.0161 3.46112 34.7807Z" fill="white"/>
<path d="M215.435 10.0143C215.513 10.0138 215.59 10.0132 215.671 10.0127C215.93 10.0112 216.19 10.012 216.45 10.0127C216.636 10.0121 216.823 10.0114 217.009 10.0106C217.515 10.0088 218.021 10.0089 218.528 10.0095C218.95 10.0098 219.373 10.0092 219.796 10.0086C220.794 10.0072 221.791 10.0073 222.789 10.0085C223.817 10.0096 224.846 10.0082 225.874 10.0055C226.758 10.0033 227.642 10.0026 228.525 10.0032C229.053 10.0035 229.58 10.0033 230.108 10.0016C230.604 10 231.1 10.0004 231.596 10.0023C231.778 10.0027 231.96 10.0024 232.142 10.0013C232.39 9.99999 232.639 10.0012 232.888 10.0029C232.995 10.0015 232.995 10.0015 233.104 10C233.729 10.0091 234.24 10.2244 234.709 10.6296C234.776 10.7136 234.776 10.7136 234.845 10.7993C234.914 10.8829 234.914 10.8829 234.985 10.9682C235.281 11.4217 235.334 11.8122 235.336 12.3491C235.336 12.4174 235.337 12.4857 235.337 12.556C235.338 12.7841 235.338 13.0121 235.338 13.2402C235.339 13.404 235.339 13.5679 235.34 13.7317C235.342 14.1763 235.342 14.6208 235.342 15.0654C235.343 15.3433 235.343 15.6213 235.344 15.8992C235.345 16.8692 235.346 17.8393 235.346 18.8093C235.346 19.7128 235.348 20.6162 235.351 21.5197C235.354 22.2959 235.355 23.0722 235.355 23.8485C235.355 24.3119 235.355 24.7752 235.357 25.2386C235.359 25.6745 235.359 26.1105 235.358 26.5465C235.358 26.7061 235.358 26.8658 235.359 27.0254C235.366 27.9711 235.348 28.6815 234.721 29.438C234.659 29.492 234.596 29.5461 234.531 29.6018C234.439 29.6852 234.439 29.6852 234.345 29.7703C233.782 30.1105 233.136 30.1459 232.493 30.1479C232.379 30.1494 232.379 30.1494 232.262 30.1509C232.012 30.154 231.762 30.1557 231.513 30.1574C231.338 30.1593 231.164 30.1612 230.99 30.1633C230.533 30.1684 230.077 30.1724 229.62 30.1761C229.154 30.1802 228.687 30.1853 228.22 30.1903C227.306 30.2 226.392 30.2085 225.478 30.2162C225.428 30.454 225.379 30.6919 225.33 30.93C225.316 30.9966 225.302 31.0632 225.288 31.1318C225.166 31.7312 225.127 32.3081 225.133 32.9184C225.134 33.0217 225.135 33.125 225.136 33.2315C225.194 35.8124 226.515 37.8926 228.314 39.6695C228.862 40.1803 229.449 40.6256 230.057 41.0608C230.737 41.5471 231.267 41.9286 231.566 42.7428C231.684 43.546 231.55 44.142 231.133 44.8306C230.546 45.4024 229.958 45.6238 229.144 45.6236C228.99 45.619 228.99 45.619 228.832 45.6143C228.669 45.6114 228.669 45.6114 228.501 45.6085C225.87 45.5383 223.273 45.033 220.864 43.9591C220.795 43.9283 220.725 43.8976 220.654 43.8659C219.215 43.2142 217.992 42.3429 216.851 41.2506C216.776 41.1821 216.701 41.1136 216.624 41.043C214.367 38.9077 213.122 35.59 213.033 32.5178C213.023 31.9142 213.023 31.3106 213.023 30.7069C213.023 30.5036 213.022 30.3004 213.022 30.0971C213.02 29.5477 213.02 28.9983 213.019 28.4488C213.019 28.1052 213.019 27.7616 213.018 27.418C213.017 26.3416 213.016 25.2653 213.015 24.189C213.015 22.9486 213.013 21.7081 213.01 20.4676C213.008 19.507 213.007 18.5463 213.007 17.5857C213.007 17.0126 213.006 16.4395 213.004 15.8664C213.003 15.3278 213.003 14.7892 213.003 14.2505C213.004 14.0532 213.003 13.8559 213.002 13.6586C213.001 13.3886 213.001 13.1186 213.002 12.8486C213.002 12.7712 213.001 12.6938 213 12.614C213.006 11.9754 213.131 11.3554 213.502 10.8251C213.558 10.7732 213.615 10.7212 213.673 10.6676C213.756 10.5873 213.756 10.5873 213.841 10.5054C214.355 10.1202 214.802 10.009 215.435 10.0143Z" fill="white"/>
<path d="M242.106 10.0361C242.184 10.0356 242.262 10.0351 242.342 10.0345C242.602 10.033 242.862 10.0329 243.121 10.0329C243.308 10.0321 243.495 10.0313 243.681 10.0303C244.188 10.0281 244.694 10.0273 245.201 10.0267C245.517 10.0264 245.834 10.0258 246.15 10.025C247.255 10.0226 248.36 10.0213 249.465 10.0209C250.494 10.0206 251.523 10.0176 252.552 10.0134C253.436 10.0099 254.32 10.0083 255.204 10.0083C255.732 10.0082 256.26 10.0073 256.788 10.0044C257.285 10.0018 257.781 10.0016 258.278 10.0032C258.46 10.0034 258.642 10.0027 258.824 10.0011C259.882 9.99238 260.565 10.0174 261.393 10.7431C261.437 10.7961 261.482 10.8491 261.528 10.9037C261.598 10.9825 261.598 10.9825 261.669 11.0628C261.967 11.5585 262.017 12.094 262.018 12.6611C262.019 12.727 262.019 12.7929 262.02 12.8608C262.021 13.0797 262.02 13.2986 262.02 13.5175C262.02 13.6753 262.021 13.833 262.021 13.9908C262.023 14.4179 262.023 14.8451 262.022 15.2723C262.022 15.6295 262.023 15.9867 262.023 16.3439C262.024 17.187 262.024 18.0301 262.024 18.8732C262.023 19.7415 262.025 20.6098 262.027 21.4782C262.028 22.225 262.029 22.9718 262.029 23.7186C262.029 24.1641 262.029 24.6095 262.03 25.055C262.031 25.4741 262.031 25.8932 262.03 26.3123C262.03 26.4656 262.03 26.6189 262.031 26.7722C262.036 27.7266 262.01 28.5402 261.472 29.3551C260.781 30.0153 260.042 30.1424 259.11 30.1377C258.996 30.1377 258.996 30.1377 258.879 30.1377C258.628 30.1376 258.376 30.1369 258.125 30.1361C257.95 30.1359 257.776 30.1357 257.601 30.1356C257.142 30.1353 256.683 30.1343 256.224 30.1332C255.755 30.1321 255.287 30.1317 254.818 30.1312C253.899 30.1301 252.98 30.1284 252.061 30.1263C252.029 30.3026 251.997 30.4789 251.965 30.6553C251.947 30.7535 251.929 30.8517 251.91 30.9528C251.563 32.8802 251.701 34.768 252.563 36.5463C252.608 36.6402 252.654 36.7341 252.701 36.8308C253.049 37.506 253.473 38.0779 253.967 38.6529C254.034 38.7344 254.101 38.8158 254.17 38.8998C254.863 39.7152 255.696 40.3263 256.547 40.964C257.185 41.4472 257.784 41.9507 257.98 42.7658C258.064 43.5072 258.043 44.1638 257.578 44.772C257.086 45.2943 256.63 45.5766 255.902 45.6047C255.713 45.6067 255.523 45.607 255.334 45.6059C255.232 45.6053 255.13 45.6048 255.025 45.6042C250.459 45.5331 246.156 43.9769 242.915 40.7426C240.529 38.1986 239.692 34.8926 239.694 31.4967C239.693 31.2814 239.692 31.066 239.691 30.8507C239.69 30.269 239.689 29.6873 239.689 29.1055C239.689 28.7417 239.689 28.378 239.688 28.0142C239.686 26.7443 239.685 25.4744 239.685 24.2045C239.686 23.0218 239.683 21.8391 239.68 20.6563C239.678 19.6394 239.677 18.6224 239.677 17.6055C239.677 16.9987 239.676 16.3919 239.674 15.7852C239.672 15.2151 239.672 14.645 239.674 14.0749C239.674 13.8659 239.673 13.6569 239.672 13.4479C239.671 13.1622 239.672 12.8767 239.673 12.591C239.672 12.5087 239.671 12.4264 239.67 12.3416C239.678 11.6843 239.867 11.164 240.299 10.6631C240.355 10.6184 240.411 10.5737 240.469 10.5276C240.524 10.4813 240.58 10.435 240.638 10.3873C241.113 10.0772 241.55 10.0342 242.106 10.0361Z" fill="white"/>
<path d="M438.945 10.1748C439.064 10.2442 439.064 10.2442 439.195 10.344C439.266 10.3958 439.336 10.4477 439.408 10.5011C439.653 10.704 439.789 10.9377 439.922 11.2214C439.947 11.2721 439.972 11.3228 439.997 11.3751C440.321 12.0493 440.612 12.7383 440.904 13.4261C440.968 13.575 441.032 13.7239 441.096 13.8729C441.231 14.1891 441.367 14.5055 441.502 14.8219C441.833 15.5945 442.166 16.3658 442.499 17.1373C443.08 18.4815 443.659 19.8265 444.235 21.1726C444.778 21.2241 445.322 21.2755 445.866 21.3268C446.069 21.3459 446.272 21.3651 446.475 21.3844C447.78 21.508 449.085 21.6284 450.39 21.7439C450.825 21.7825 451.26 21.8215 451.695 21.8605C452.123 21.8988 452.551 21.9364 452.979 21.9735C453.249 21.9971 453.519 22.0213 453.789 22.0458C453.915 22.057 454.042 22.068 454.168 22.0787C455.881 22.2242 455.881 22.2242 456.536 22.8554C456.999 23.4545 457.035 24.0231 456.981 24.7577C456.867 25.1966 456.657 25.4827 456.314 25.7821C456.236 25.8611 456.159 25.9404 456.082 26.0199C455.871 26.2289 455.648 26.4156 455.415 26.6006C455.097 26.853 454.795 27.1165 454.498 27.3917C454.147 27.7165 453.785 28.0203 453.41 28.3177C453.128 28.5491 452.863 28.7955 452.596 29.0424C452.35 29.269 452.098 29.484 451.835 29.6919C451.511 29.9486 451.206 30.2202 450.904 30.5013C450.54 30.8394 450.168 31.157 449.777 31.4653C449.491 31.7007 449.218 31.9504 448.947 32.2026C448.89 32.2551 448.89 32.2551 448.832 32.3087C448.795 32.3435 448.759 32.3782 448.721 32.4141C448.607 32.5134 448.607 32.5134 448.477 32.5978C448.33 32.6887 448.33 32.6887 448.162 32.8792C448.186 33.4055 448.312 33.9115 448.432 34.4235C448.451 34.5098 448.471 34.5962 448.492 34.6851C448.546 34.9203 448.601 35.1554 448.655 35.3904C448.713 35.6378 448.77 35.8853 448.827 36.1329C448.936 36.6018 449.044 37.0707 449.153 37.5396C449.276 38.0697 449.399 38.6 449.521 39.1303C449.713 39.9581 449.905 40.7858 450.097 41.6135C450.124 41.7331 450.124 41.7331 450.153 41.855C450.17 41.9311 450.188 42.0072 450.206 42.0856C450.223 42.1594 450.24 42.2332 450.258 42.3093C450.295 42.4697 450.334 42.6299 450.373 42.79C450.393 42.8732 450.413 42.9565 450.434 43.0422C450.452 43.1169 450.47 43.1916 450.489 43.2685C450.647 44.0516 450.518 44.6784 450.075 45.3404C449.627 45.7633 449.137 45.9837 448.519 45.9943C448.453 45.9962 448.388 45.9981 448.321 46C447.672 45.9331 447.164 45.625 446.619 45.2878C446.393 45.1477 446.165 45.0099 445.938 44.8716C445.89 44.8426 445.842 44.8135 445.793 44.7835C445.233 44.4425 444.667 44.1118 444.1 43.781C443.91 43.6698 443.719 43.5585 443.529 43.4472C443.483 43.4203 443.437 43.3934 443.39 43.3657C443.066 43.1766 442.744 42.9861 442.422 42.795C442.043 42.5701 441.663 42.3464 441.283 42.1239C441.235 42.0957 441.186 42.0675 441.137 42.0384C440.884 41.8906 440.631 41.7431 440.379 41.5957C439.935 41.3364 439.492 41.0767 439.057 40.8023C438.996 40.764 438.935 40.7256 438.872 40.6861C438.764 40.6179 438.657 40.5486 438.551 40.4781C438.337 40.3432 438.203 40.2659 437.946 40.2837C437.694 40.3471 437.52 40.4367 437.299 40.5725C437.219 40.6212 437.14 40.6699 437.057 40.7201C436.994 40.7595 436.994 40.7595 436.929 40.7997C436.746 40.913 436.562 41.0248 436.378 41.1366C436.28 41.1959 436.183 41.2553 436.086 41.3147C435.551 41.6403 435.012 41.9564 434.471 42.2719C434.372 42.3302 434.272 42.3885 434.172 42.4468C433.82 42.6529 433.468 42.8587 433.116 43.0646C432.765 43.2697 432.414 43.475 432.063 43.6804C431.99 43.7232 431.99 43.7232 431.915 43.7669C431.377 44.0817 430.84 44.3985 430.306 44.7199C430.235 44.7627 430.235 44.7627 430.162 44.8064C429.938 44.9415 429.714 45.077 429.49 45.2129C428.679 45.7027 428.021 46.0937 427.042 45.976C426.441 45.7821 426.018 45.4974 425.708 44.9517C425.662 44.8747 425.617 44.7977 425.569 44.7184C425.347 43.9746 425.518 43.2138 425.696 42.4774C425.718 42.3803 425.741 42.2832 425.763 42.186C425.811 41.9789 425.86 41.7719 425.909 41.5651C425.987 41.2374 426.064 40.9095 426.14 40.5814C426.261 40.0625 426.383 39.5438 426.505 39.0252C426.724 38.0964 426.941 37.1673 427.158 36.238C427.234 35.9125 427.311 35.5871 427.388 35.2618C427.435 35.0591 427.483 34.8563 427.53 34.6535C427.563 34.5158 427.596 34.3782 427.628 34.2405C427.734 33.7875 427.835 33.3444 427.857 32.8792C427.726 32.6991 427.64 32.6071 427.468 32.4768C427.407 32.4261 427.407 32.4261 427.345 32.3743C427.221 32.2721 427.095 32.1731 426.968 32.0744C426.835 31.9677 426.703 31.861 426.57 31.7543C426.504 31.7016 426.437 31.649 426.369 31.5948C426.069 31.3461 425.786 31.081 425.5 30.8159C425.181 30.5201 424.848 30.2455 424.506 29.9751C424.269 29.7804 424.044 29.5754 423.819 29.3672C423.53 29.1002 423.238 28.8436 422.929 28.599C422.577 28.3194 422.247 28.0216 421.917 27.7165C421.67 27.4899 421.419 27.2749 421.156 27.067C419.109 25.4443 419.109 25.4443 419.008 24.5585C418.976 23.9531 419.028 23.4259 419.409 22.9286C419.796 22.5124 420.246 22.2633 420.818 22.1959C420.865 22.1904 420.911 22.1849 420.959 22.1792C421.817 22.0812 422.678 22.0105 423.538 21.934C423.805 21.9102 424.072 21.8861 424.34 21.8621C424.845 21.8166 425.35 21.7714 425.855 21.7263C426.76 21.6454 427.665 21.5642 428.57 21.4829C428.887 21.4544 429.204 21.426 429.521 21.3978C429.67 21.3844 429.82 21.371 429.97 21.3576C430.151 21.3413 430.333 21.3251 430.515 21.3089C430.672 21.2948 430.829 21.2802 430.986 21.2649C431.116 21.2529 431.245 21.2426 431.375 21.2349C431.676 21.2154 431.676 21.2154 431.909 21.0414C431.933 20.9837 431.956 20.926 431.98 20.8666C432.009 20.8006 432.037 20.7346 432.067 20.6665C432.095 20.5935 432.124 20.5205 432.153 20.4452C432.201 20.3305 432.201 20.3305 432.251 20.2135C432.357 19.9593 432.46 19.704 432.563 19.4486C432.637 19.2705 432.711 19.0926 432.786 18.9147C432.902 18.6365 433.018 18.3581 433.133 18.0793C433.404 17.4231 433.682 16.7702 433.965 16.1192C433.984 16.0743 434.004 16.0294 434.024 15.9832C434.121 15.7598 434.219 15.5365 434.316 15.3133C434.461 14.9824 434.605 14.6512 434.748 14.32C434.817 14.1623 434.886 14.0047 434.954 13.8471C435.119 13.469 435.283 13.0904 435.443 12.7103C435.521 12.5238 435.601 12.3375 435.68 12.1512C435.735 12.0202 435.79 11.8887 435.845 11.7573C436.156 11.0265 436.468 10.4781 437.209 10.1187C437.711 9.95593 438.466 9.94771 438.945 10.1748Z" fill="white"/>
</svg>
